<svg xmlns="http://www.w3.org/2000/svg" viewBox="0 0 320 320">
  <g>
    <path d="M158.37,59.11H56a4.15,4.15,0,0,0,0,8.29H158.37a4.15,4.15,0,0,0,0-8.29Zm0,0" fill="#999"/>
    <path d="M162.44,91.75a4.11,4.11,0,0,0-4.07-4.15H56a4.15,4.15,0,0,0,0,8.3H158.37a4.11,4.11,0,0,0,4.07-4.15Zm0,0" fill="#999"/>
    <path d="M56,116.1a4.15,4.15,0,0,0,0,8.3H107.2a4.15,4.15,0,0,0,0-8.3Zm0,0" fill="#999"/>
    <path d="M98,293.29H38.61a8.93,8.93,0,0,1-8.84-9V35.71a8.93,8.93,0,0,1,8.84-9c151.62,0,142.4-.1,143.76.1V61.5a14.51,14.51,0,0,0,14.36,14.62h34.05a9.36,9.36,0,0,1,.1,1.3v24a4.07,4.07,0,1,0,8.14,0v-24a17.33,17.33,0,0,0-4-11.09,0,0,0,0,0,0,0c-.32-.38-41.45-42.47-43.06-43.86h0a16.68,16.68,0,0,0-10.89-4H38.61a17.16,17.16,0,0,0-17,17.3V284.29a17.16,17.16,0,0,0,17,17.3H98a4.15,4.15,0,0,0,0-8.3ZM190.51,61.5V32.57l34.61,35.25H196.73a6.27,6.27,0,0,1-6.22-6.32Zm0,0" fill="#999"/>
    <path d="M295.94,173.22l-.14-.25a17.83,17.83,0,0,0-15.31-8.81H266.21c-4.29-31.95-31.27-56.66-63.8-56.66s-59.52,24.71-63.81,56.66H124.32a18.1,18.1,0,0,0-17.89,18.22v101a18.09,18.09,0,0,0,17.89,18.22H280.49a18.08,18.08,0,0,0,17.89-18.22v-101a18.35,18.35,0,0,0-2.44-9.16Zm-5.71,110.15a9.92,9.92,0,0,1-.91,4.15l-64.5-58.63,65.38-47.12c.05.78,0,62.06,0,101.6Zm-9.74-110.91a9.57,9.57,0,0,1,5.8,2L264.63,190a67,67,0,0,0,2.19-16.93c0-.22,0-.44,0-.65ZM202.41,115.8c31,0,56.26,25.71,56.26,57.31a57.54,57.54,0,0,1-5.84,25.43l-34.25,24.68-2.91-2.65a19.74,19.74,0,0,0-11.39-5.06,4.15,4.15,0,0,0,2.2-3.68v-4.47c17.24-3.58,21.92-29.15,3.33-35.85-1.09-.39-2.21-.8-3.33-1.23V151.82a11.74,11.74,0,0,1,4.51,2.25,4,4,0,0,0,5.72-.27,4.2,4.2,0,0,0-.23-5.86,20.14,20.14,0,0,0-10-4.58v-3.69a4.08,4.08,0,1,0-8.15,0v4c-.54.13-1.09.27-1.64.44-11.92,3.65-15,20.13-6.37,27a38.07,38.07,0,0,0,8,4.68v23.54c-3-.24-5-1-8.26-3.21a4,4,0,0,0-5.64,1.2,4.19,4.19,0,0,0,1.18,5.74c5,3.3,8.37,4.32,12.72,4.59v4.13a4.17,4.17,0,0,0,2.2,3.68,19.71,19.71,0,0,0-11.38,5.06l-2.92,2.66L152,198.54a57.54,57.54,0,0,1-5.84-25.43c0-31.6,25.24-57.31,56.27-57.31Zm4.07,63.31.62.23c9.85,3.54,7.53,16.19-.62,19.37Zm-8.15-12.51a22.31,22.31,0,0,1-3-2c-3.22-2.58-2.12-10.15,3-12.32ZM115.49,287.52a9.93,9.93,0,0,1-.91-4.16c0-39.53,0-100.81,0-101.59L180,228.89ZM138,172.46v.65A67,67,0,0,0,140.18,190l-21.66-15.61a9.59,9.59,0,0,1,5.8-2ZM124.32,293.29a9.35,9.35,0,0,1-2.55-.36l72.8-66.17a11.6,11.6,0,0,1,15.67,0L283,292.93a9.35,9.35,0,0,1-2.55.36Zm0,0" fill="#00b7bf"/>
  </g>
</svg>
